<?xml version="1.0" encoding="UTF-8"?>
<svg version="1.1" xmlns="http://www.w3.org/2000/svg" width="296" height="296">
<path d="M0 0 C3.3918095 1.33351083 5.89103064 3.89103165 8.57446289 6.29101562 C9.8261634 7.38840138 11.07877809 8.48474522 12.33227539 9.58007812 C12.95263672 10.12438477 13.57299805 10.66869141 14.2121582 11.22949219 C16.74867943 13.43019617 19.3420058 15.54971389 21.94946289 17.66601562 C22.8324707 18.38789062 23.71547852 19.10976563 24.62524414 19.85351562 C26.05089267 21.01083423 27.48349281 22.15978851 28.92993164 23.29101562 C33.52283955 26.99056616 37.04045973 31.34423968 40.69946289 35.95507812 C42.82897802 38.56661188 45.06030524 40.98133458 47.38696289 43.41601562 C52.96989526 49.56111827 57.2336305 56.48396063 61.59155273 63.51904297 C62.99248119 65.75985428 64.42912787 67.97369452 65.87524414 70.18554688 C72.44022426 80.37480211 77.21483227 90.73372323 81.33862305 102.12719727 C81.88885282 103.79797274 81.88885282 103.79797274 83.01196289 104.79101562 C83.61524414 103.92476563 84.21852539 103.05851562 84.84008789 102.16601562 C85.64669151 101.0405222 86.4540212 99.91554889 87.26196289 98.79101562 C87.65770508 98.21867187 88.05344727 97.64632812 88.46118164 97.05664062 C89.65258789 95.41601562 89.65258789 95.41601562 92.01196289 92.79101562 C96.01196289 92.79101562 96.01196289 92.79101562 99.01196289 94.79101562 C99.3795874 94.33251221 99.74721191 93.87400879 100.12597656 93.40161133 C101.81408074 91.29976912 103.50672823 89.2016301 105.19946289 87.10351562 C105.77760742 86.38228516 106.35575195 85.66105469 106.95141602 84.91796875 C110.13039028 80.98466161 113.35616643 77.28641151 117.01196289 73.79101562 C117.34196289 73.46101563 117.67196289 73.13101563 118.01196289 72.79101562 C122.28780214 72.13255305 126.34112391 71.9190191 130.24243164 73.95507812 C132.26140752 75.47809668 134.12629157 77.10723631 136.01196289 78.79101562 C136.60364258 79.17386719 137.19532227 79.55671875 137.80493164 79.95117188 C140.34431482 81.63404101 141.83114762 83.18660504 142.70727539 86.11523438 C143.75780969 93.5919093 141.48444274 97.88178204 137.09399414 103.87695312 C136.00906547 105.31037404 134.9191131 106.74000487 133.82446289 108.16601562 C133.2656543 108.90207031 132.7068457 109.638125 132.13110352 110.39648438 C130.76239183 112.19803651 129.38929411 113.99605027 128.01196289 115.79101562 C128.34413818 116.41226318 128.67631348 117.03351074 129.01855469 117.67358398 C130.01196289 119.79101562 130.01196289 119.79101562 129.90649414 121.66992188 C128.61611097 124.7296514 126.72330393 127.10182832 124.69946289 129.72851562 C123.91958008 130.74816406 123.13969727 131.7678125 122.33618164 132.81835938 C120.24641938 135.49114775 118.13910024 138.14791361 116.01196289 140.79101562 C114.03196289 140.13101563 112.05196289 139.47101563 110.01196289 138.79101562 C107.85089978 141.34100736 105.71100204 143.90795701 103.57446289 146.47851562 C102.96280273 147.19974609 102.35114258 147.92097656 101.72094727 148.6640625 C101.13764648 149.36982422 100.5543457 150.07558594 99.95336914 150.80273438 C99.41397705 151.44686279 98.87458496 152.09099121 98.31884766 152.75463867 C96.78205564 155.14925519 96.25806235 156.96215803 96.01196289 159.79101562 C97.68675113 162.56081637 97.68675113 162.56081637 100.13696289 165.16601562 C100.96196289 166.12894531 101.78696289 167.091875 102.63696289 168.08398438 C104.01091001 169.65001291 105.38553239 171.21545061 106.76196289 172.77929688 C109.18210972 175.77010333 110.00332499 177.54051637 110.13696289 181.41601562 C106.76457884 197.44257471 97.65035534 209.93232211 86.19946289 221.29101562 C85.28801514 222.19811279 84.37656738 223.10520996 83.4375 224.03979492 C75.67402291 231.549568 67.49644924 237.37415547 58.0871582 242.62109375 C56.2382715 243.66343082 54.43016269 244.77735755 52.62915039 245.90039062 C36.2110779 255.98520174 9.78462996 270.8188412 -9.98803711 266.79101562 C-15.42571293 265.26576868 -20.73546479 263.4453373 -26.05053711 261.54101562 C-26.79459808 261.27701965 -27.53865906 261.01302368 -28.30526733 260.74102783 C-47.73158655 253.80255547 -66.1883129 245.26160116 -81.98803711 231.79101562 C-83.52532286 230.63931138 -85.06671218 229.49305473 -86.61303711 228.35351562 C-100.2608102 217.56978251 -110.46536861 204.27618233 -116.80053711 188.04101562 C-117.06133057 187.38593018 -117.32212402 186.73084473 -117.59082031 186.0559082 C-118.58182673 183.27013146 -119.07445122 181.22444703 -118.49194336 178.30273438 C-116.34447446 174.71618241 -113.78220092 171.56355315 -111.11303711 168.35351562 C-104.38328788 161.30684551 -104.38328788 161.30684551 -100.95288086 152.80664062 C-102.49428571 149.80526364 -104.48168825 147.18964908 -106.55053711 144.54101562 C-107.18765625 143.70957031 -107.18765625 143.70957031 -107.83764648 142.86132812 C-108.88202052 141.50012152 -109.93426175 140.1449573 -110.98803711 138.79101562 C-113.95803711 139.78101563 -113.95803711 139.78101563 -116.98803711 140.79101562 C-118.73889045 138.72923489 -120.48874092 136.66661686 -122.23803711 134.60351562 C-122.72916992 134.02537109 -123.22030273 133.44722656 -123.72631836 132.8515625 C-124.69615316 131.70715744 -125.66299939 130.5602124 -126.62670898 129.41064453 C-127.85568987 127.94847466 -129.10062485 126.49975071 -130.34741211 125.05273438 C-131.98803711 122.79101562 -131.98803711 122.79101562 -131.98803711 119.79101562 C-130.50303711 118.80101562 -130.50303711 118.80101562 -128.98803711 117.79101562 C-130.5552951 112.69496293 -133.70686824 109.13547188 -137.05053711 105.10351562 C-138.14710135 103.76751576 -139.24222413 102.43033108 -140.33569336 101.09179688 C-140.82046143 100.50567627 -141.30522949 99.91955566 -141.8046875 99.31567383 C-144.46757711 95.88473807 -144.50788221 92.69408824 -144.45288086 88.45898438 C-143.45584843 82.73652092 -139.2857265 79.45068231 -134.76538086 76.18554688 C-130.1540612 73.36180567 -126.48741044 71.85715978 -120.98803711 72.79101562 C-114.32622482 75.83227776 -110.41550144 82.16715928 -105.98803711 87.79101562 C-104.97240778 88.98296949 -103.95280318 90.17157597 -102.92553711 91.35351562 C-100.98803711 93.79101563 -100.98803711 93.79101563 -100.98803711 95.79101562 C-100.24553711 95.25476563 -99.50303711 94.71851562 -98.73803711 94.16601562 C-95.98803711 92.79101562 -95.98803711 92.79101562 -94.04272461 93.41992188 C-91.54255327 95.08828716 -90.13032693 96.92835801 -88.36303711 99.35351562 C-86.12424345 102.59912266 -86.12424345 102.59912266 -82.98803711 104.79101562 C-82.90166992 104.15292969 -82.81530273 103.51484375 -82.72631836 102.85742188 C-79.86486168 90.97253565 -73.09200415 79.50416716 -66.86303711 69.10351562 C-66.14603638 67.90359985 -66.14603638 67.90359985 -65.41455078 66.67944336 C-61.97370754 61.07160097 -58.10560679 55.91690553 -53.98803711 50.79101562 C-52.93616211 49.44330078 -52.93616211 49.44330078 -51.86303711 48.06835938 C-45.03796941 39.55124365 -37.56020908 31.6438274 -29.98803711 23.79101562 C-29.403125 23.18201416 -28.81821289 22.5730127 -28.21557617 21.94555664 C-24.37562755 18.01726565 -20.35838792 14.55080615 -15.98803711 11.22851562 C-12.14958192 8.28208867 -8.41247375 5.33692108 -4.86303711 2.04101562 C-1.98803711 -0.20898438 -1.98803711 -0.20898438 0 0 Z " fill="#060203" transform="translate(147.988037109375,28.208984375)"/>
<path d="M0 0 C31.7966972 19.17896022 57.77535302 53.17760155 67.375 89 C67.9388496 91.32807235 68.48237786 93.66121516 69 96 C69.35384766 97.52947266 69.35384766 97.52947266 69.71484375 99.08984375 C72.17233262 110.79905541 69.23361243 120.49074584 63.39453125 130.84765625 C57.48695381 139.81041103 49.45329044 144.5402962 40.125 149.5 C33.8465843 152.88148218 27.66742062 156.2936991 21.6796875 160.171875 C21.12539062 160.44515625 20.57109375 160.7184375 20 161 C19.34 160.67 18.68 160.34 18 160 C18.85980469 159.33355469 19.71960938 158.66710937 20.60546875 157.98046875 C26.84104345 153.12672655 33.02282542 148.22138867 39.0625 143.125 C39.58545654 142.68567139 40.10841309 142.24634277 40.6472168 141.79370117 C42.11374447 140.54725915 43.55733741 139.27398814 45 138 C45.88558594 137.23429688 46.77117187 136.46859375 47.68359375 135.6796875 C53.11600438 129.39531365 53.76431288 121.52581436 54.75 113.5625 C54.88792969 112.57701172 55.02585937 111.59152344 55.16796875 110.57617188 C57.48604385 92.54537122 49.49262769 80.97900788 39 67 C36.15340291 63.49906767 33.14344239 60.23447906 30 57 C29.17113281 56.09765625 28.34226562 55.1953125 27.48828125 54.265625 C20.18376558 46.5452318 10.51588106 37.87434082 0 35 C-15.87346697 39.46254071 -30.39775923 58.56694788 -40 71 C-40.45971191 71.58861816 -40.91942383 72.17723633 -41.39306641 72.78369141 C-50.99944754 85.14660302 -56.35380611 94.19346718 -54.44921875 110.19140625 C-54.2019188 111.9826953 -53.94794493 113.77307491 -53.6875 115.5625 C-53.56955078 116.45646484 -53.45160156 117.35042969 -53.33007812 118.27148438 C-51.92889734 128.09412099 -49.97421541 134.06732973 -42.125 140.375 C-41.46459717 140.92663818 -40.80419434 141.47827637 -40.1237793 142.04663086 C-34.77345126 146.47954046 -29.2758709 150.72504221 -23.70703125 154.87890625 C-21.27326311 156.78588475 -19.12686846 158.76145826 -17 161 C-21.2140066 159.71992321 -24.80387718 158.12544885 -28.58984375 155.8828125 C-29.62173828 155.27566406 -30.65363281 154.66851562 -31.71679688 154.04296875 C-33.31104492 153.09357422 -33.31104492 153.09357422 -34.9375 152.125 C-37.05067162 150.87741846 -39.16395014 149.63001796 -41.27734375 148.3828125 C-42.76633179 147.49722656 -42.76633179 147.49722656 -44.28540039 146.59375 C-46.50172342 145.29253976 -48.73441195 144.046833 -50.9921875 142.8203125 C-60.15199762 137.276843 -64.93138848 128.23853576 -67.75 118.25 C-70.48331773 106.16903766 -68.50498581 95.64041158 -65 84 C-64.66097656 82.83726562 -64.32195312 81.67453125 -63.97265625 80.4765625 C-61.50198359 73.07333695 -58.02843333 68.20880385 -52.58203125 62.65625 C-48.7312847 58.69481634 -45.3851685 54.35911363 -42 50 C-45.96 51.98 -45.96 51.98 -50 54 C-48.50793873 49.70029657 -46.263732 46.16853121 -43.625 42.5 C-43.18873291 41.89196533 -42.75246582 41.28393066 -42.30297852 40.6574707 C-37.3836493 33.95181712 -31.78361952 27.95924776 -26 22 C-25.20464844 21.1646875 -24.40929687 20.329375 -23.58984375 19.46875 C-16.42128796 12.08526397 -8.43434354 5.86736942 0 0 Z " fill="#EB0716" transform="translate(147,49)"/>
<path d="M0 0 C3.3918095 1.33351083 5.89103064 3.89103165 8.57446289 6.29101562 C9.8261634 7.38840138 11.07877809 8.48474522 12.33227539 9.58007812 C12.95263672 10.12438477 13.57299805 10.66869141 14.2121582 11.22949219 C16.74867943 13.43019617 19.3420058 15.54971389 21.94946289 17.66601562 C22.8324707 18.38789062 23.71547852 19.10976563 24.62524414 19.85351562 C26.05089267 21.01083423 27.48349281 22.15978851 28.92993164 23.29101562 C33.52283955 26.99056616 37.04045973 31.34423968 40.69946289 35.95507812 C42.82897802 38.56661188 45.06030524 40.98133458 47.38696289 43.41601562 C52.96989526 49.56111827 57.2336305 56.48396063 61.59155273 63.51904297 C62.99248119 65.75985428 64.42912787 67.97369452 65.87524414 70.18554688 C72.44022426 80.37480211 77.21483227 90.73372323 81.33862305 102.12719727 C81.88885282 103.79797274 81.88885282 103.79797274 83.01196289 104.79101562 C83.61524414 103.92476563 84.21852539 103.05851562 84.84008789 102.16601562 C85.64669151 101.0405222 86.4540212 99.91554889 87.26196289 98.79101562 C87.65770508 98.21867187 88.05344727 97.64632812 88.46118164 97.05664062 C89.65258789 95.41601562 89.65258789 95.41601562 92.01196289 92.79101562 C96.01196289 92.79101562 96.01196289 92.79101562 99.01196289 94.79101562 C99.3795874 94.33251221 99.74721191 93.87400879 100.12597656 93.40161133 C101.81408074 91.29976912 103.50672823 89.2016301 105.19946289 87.10351562 C105.77760742 86.38228516 106.35575195 85.66105469 106.95141602 84.91796875 C110.13039028 80.98466161 113.35616643 77.28641151 117.01196289 73.79101562 C117.34196289 73.46101563 117.67196289 73.13101563 118.01196289 72.79101562 C122.28780214 72.13255305 126.34112391 71.9190191 130.24243164 73.95507812 C132.26140752 75.47809668 134.12629157 77.10723631 136.01196289 78.79101562 C136.60364258 79.17386719 137.19532227 79.55671875 137.80493164 79.95117188 C140.34431482 81.63404101 141.83114762 83.18660504 142.70727539 86.11523438 C143.75780969 93.5919093 141.48444274 97.88178204 137.09399414 103.87695312 C136.00906547 105.31037404 134.9191131 106.74000487 133.82446289 108.16601562 C133.2656543 108.90207031 132.7068457 109.638125 132.13110352 110.39648438 C130.76239183 112.19803651 129.38929411 113.99605027 128.01196289 115.79101562 C128.34413818 116.41226318 128.67631348 117.03351074 129.01855469 117.67358398 C130.01196289 119.79101562 130.01196289 119.79101562 129.90649414 121.66992188 C128.61611097 124.7296514 126.72330393 127.10182832 124.69946289 129.72851562 C123.91958008 130.74816406 123.13969727 131.7678125 122.33618164 132.81835938 C120.24641938 135.49114775 118.13910024 138.14791361 116.01196289 140.79101562 C114.03196289 140.13101563 112.05196289 139.47101563 110.01196289 138.79101562 C107.85089978 141.34100736 105.71100204 143.90795701 103.57446289 146.47851562 C102.96280273 147.19974609 102.35114258 147.92097656 101.72094727 148.6640625 C101.13764648 149.36982422 100.5543457 150.07558594 99.95336914 150.80273438 C99.41397705 151.44686279 98.87458496 152.09099121 98.31884766 152.75463867 C96.78205564 155.14925519 96.25806235 156.96215803 96.01196289 159.79101562 C97.68675113 162.56081637 97.68675113 162.56081637 100.13696289 165.16601562 C100.96196289 166.12894531 101.78696289 167.091875 102.63696289 168.08398438 C104.01091001 169.65001291 105.38553239 171.21545061 106.76196289 172.77929688 C109.18210972 175.77010333 110.00332499 177.54051637 110.13696289 181.41601562 C106.76457884 197.44257471 97.65035534 209.93232211 86.19946289 221.29101562 C85.28801514 222.19811279 84.37656738 223.10520996 83.4375 224.03979492 C75.67402291 231.549568 67.49644924 237.37415547 58.0871582 242.62109375 C56.2382715 243.66343082 54.43016269 244.77735755 52.62915039 245.90039062 C36.2110779 255.98520174 9.78462996 270.8188412 -9.98803711 266.79101562 C-15.42571293 265.26576868 -20.73546479 263.4453373 -26.05053711 261.54101562 C-26.79459808 261.27701965 -27.53865906 261.01302368 -28.30526733 260.74102783 C-47.73158655 253.80255547 -66.1883129 245.26160116 -81.98803711 231.79101562 C-83.52532286 230.63931138 -85.06671218 229.49305473 -86.61303711 228.35351562 C-100.2608102 217.56978251 -110.46536861 204.27618233 -116.80053711 188.04101562 C-117.06133057 187.38593018 -117.32212402 186.73084473 -117.59082031 186.0559082 C-118.58182673 183.27013146 -119.07445122 181.22444703 -118.49194336 178.30273438 C-116.34447446 174.71618241 -113.78220092 171.56355315 -111.11303711 168.35351562 C-104.38328788 161.30684551 -104.38328788 161.30684551 -100.95288086 152.80664062 C-102.49428571 149.80526364 -104.48168825 147.18964908 -106.55053711 144.54101562 C-107.18765625 143.70957031 -107.18765625 143.70957031 -107.83764648 142.86132812 C-108.88202052 141.50012152 -109.93426175 140.1449573 -110.98803711 138.79101562 C-113.95803711 139.78101563 -113.95803711 139.78101563 -116.98803711 140.79101562 C-118.73889045 138.72923489 -120.48874092 136.66661686 -122.23803711 134.60351562 C-122.72916992 134.02537109 -123.22030273 133.44722656 -123.72631836 132.8515625 C-124.69615316 131.70715744 -125.66299939 130.5602124 -126.62670898 129.41064453 C-127.85568987 127.94847466 -129.10062485 126.49975071 -130.34741211 125.05273438 C-131.98803711 122.79101562 -131.98803711 122.79101562 -131.98803711 119.79101562 C-130.50303711 118.80101562 -130.50303711 118.80101562 -128.98803711 117.79101562 C-130.5552951 112.69496293 -133.70686824 109.13547188 -137.05053711 105.10351562 C-138.14710135 103.76751576 -139.24222413 102.43033108 -140.33569336 101.09179688 C-140.82046143 100.50567627 -141.30522949 99.91955566 -141.8046875 99.31567383 C-144.46757711 95.88473807 -144.50788221 92.69408824 -144.45288086 88.45898438 C-143.45584843 82.73652092 -139.2857265 79.45068231 -134.76538086 76.18554688 C-130.1540612 73.36180567 -126.48741044 71.85715978 -120.98803711 72.79101562 C-114.32622482 75.83227776 -110.41550144 82.16715928 -105.98803711 87.79101562 C-104.97240778 88.98296949 -103.95280318 90.17157597 -102.92553711 91.35351562 C-100.98803711 93.79101563 -100.98803711 93.79101563 -100.98803711 95.79101562 C-100.24553711 95.25476563 -99.50303711 94.71851562 -98.73803711 94.16601562 C-95.98803711 92.79101562 -95.98803711 92.79101562 -94.04272461 93.41992188 C-91.54255327 95.08828716 -90.13032693 96.92835801 -88.36303711 99.35351562 C-86.12424345 102.59912266 -86.12424345 102.59912266 -82.98803711 104.79101562 C-82.90166992 104.15292969 -82.81530273 103.51484375 -82.72631836 102.85742188 C-79.86486168 90.97253565 -73.09200415 79.50416716 -66.86303711 69.10351562 C-66.14603638 67.90359985 -66.14603638 67.90359985 -65.41455078 66.67944336 C-61.97370754 61.07160097 -58.10560679 55.91690553 -53.98803711 50.79101562 C-52.93616211 49.44330078 -52.93616211 49.44330078 -51.86303711 48.06835938 C-45.03796941 39.55124365 -37.56020908 31.6438274 -29.98803711 23.79101562 C-29.403125 23.18201416 -28.81821289 22.5730127 -28.21557617 21.94555664 C-24.37562755 18.01726565 -20.35838792 14.55080615 -15.98803711 11.22851562 C-12.14958192 8.28208867 -8.41247375 5.33692108 -4.86303711 2.04101562 C-1.98803711 -0.20898438 -1.98803711 -0.20898438 0 0 Z M-0.98803711 5.79101562 C-1.79885742 6.48066406 -2.60967773 7.1703125 -3.44506836 7.88085938 C-4.56346962 8.83018218 -5.68196652 9.77939233 -6.80053711 10.72851562 C-7.39294189 11.23213623 -7.98534668 11.73575684 -8.59570312 12.25463867 C-12.15587869 15.27193875 -15.76508349 18.20793291 -19.42553711 21.10351562 C-30.52043572 30.17969178 -40.11487323 40.52782422 -48.65698242 52.01123047 C-50.00551839 53.81439027 -51.38108676 55.59419158 -52.76147461 57.37304688 C-67.80534276 76.99948444 -79.7201846 99.73999888 -80.98803711 124.79101562 C-84.66810533 121.40933131 -86.96662161 118.36579807 -88.98803711 113.79101562 C-87.00803711 112.80101562 -87.00803711 112.80101562 -84.98803711 111.79101562 C-86.55171068 108.26863516 -88.682996 105.51977569 -91.11303711 102.54101562 C-91.83749023 101.64898437 -92.56194336 100.75695312 -93.30834961 99.83789062 C-93.86264648 99.16242188 -94.41694336 98.48695312 -94.98803711 97.79101562 C-96.96803711 98.78101562 -98.94803711 99.77101563 -100.98803711 100.79101562 C-101.32013184 100.34298584 -101.65222656 99.89495605 -101.99438477 99.43334961 C-103.5312865 97.36309019 -105.0721362 95.29579994 -106.61303711 93.22851562 C-107.13510742 92.52404297 -107.65717773 91.81957031 -108.19506836 91.09375 C-114.52007958 81.42850901 -114.52007958 81.42850901 -124.05053711 76.29101562 C-130.33034513 77.08845156 -134.71493642 81.0766358 -138.71850586 85.85742188 C-140.65038206 88.79981793 -140.57932025 90.3090149 -139.98803711 93.79101562 C-137.64944752 98.40164957 -134.34034092 102.37247192 -131.10522461 106.37695312 C-130.60289307 107.00214844 -130.10056152 107.62734375 -129.58300781 108.27148438 C-128.56894835 109.52512488 -127.54412968 110.77014517 -126.50830078 112.00585938 C-125.25754699 113.54102174 -124.11288619 115.16134601 -122.98803711 116.79101562 C-123.98803711 119.79101562 -123.98803711 119.79101562 -125.98803711 120.79101562 C-125.40630986 124.74306743 -123.4364597 127.01196615 -120.92553711 130.04101562 C-120.19206055 130.93304688 -119.45858398 131.82507813 -118.70288086 132.74414062 C-118.13698242 133.41960937 -117.57108398 134.09507812 -116.98803711 134.79101562 C-116.38991211 134.62601563 -115.79178711 134.46101562 -115.17553711 134.29101562 C-112.98803711 133.79101562 -112.98803711 133.79101562 -109.98803711 133.79101562 C-108.04869773 135.97906418 -106.29369245 138.1426408 -104.55053711 140.47851562 C-103.5935923 141.73248784 -102.63656248 142.9863952 -101.67944336 144.24023438 C-101.22585449 144.84786621 -100.77226563 145.45549805 -100.30493164 146.08154297 C-99.12935896 147.60756445 -97.85881821 149.05932793 -96.57788086 150.49804688 C-94.98803711 152.79101562 -94.98803711 152.79101562 -95.18188477 154.64306641 C-96.17941945 157.3009435 -97.57108465 159.19591463 -99.29663086 161.45117188 C-99.96114258 162.32708984 -100.6256543 163.20300781 -101.31030273 164.10546875 C-102.35734375 165.46575195 -102.35734375 165.46575195 -103.42553711 166.85351562 C-104.79977716 168.65648795 -106.17349785 170.45985629 -107.54663086 172.26367188 C-108.46400024 173.45875366 -108.46400024 173.45875366 -109.39990234 174.67797852 C-112.27276469 178.19043699 -112.27276469 178.19043699 -112.82397461 182.50976562 C-106.39027055 207.76355726 -84.36323743 226.05831997 -62.98803711 238.79101562 C-31.13867444 257.90670735 -31.13867444 257.90670735 4.13598633 261.22387695 C6.45080715 260.50985647 8.73035568 259.72996563 11.01196289 258.91601562 C11.8657251 258.61284424 12.7194873 258.30967285 13.59912109 257.99731445 C36.16240718 249.75354434 57.40873217 239.04566482 76.01196289 223.79101562 C76.70805664 223.23671875 77.40415039 222.68242187 78.12133789 222.11132812 C88.03408573 213.99691064 95.46685328 203.50466488 100.88696289 191.97851562 C101.18538086 191.34421631 101.48379883 190.70991699 101.79125977 190.05639648 C102.57805451 188.32164245 103.29756951 186.55681846 104.01196289 184.79101562 C104.36000977 183.9840625 104.70805664 183.17710937 105.06665039 182.34570312 C104.97215204 177.93127999 101.94947415 175.06041879 99.26196289 171.72851562 C98.71024414 171.02146484 98.15852539 170.31441406 97.59008789 169.5859375 C96.55690509 168.26341384 95.51753284 166.94568474 94.4699707 165.63452148 C93.98882812 165.02616455 93.50768555 164.41780762 93.01196289 163.79101562 C92.16529053 162.75581787 92.16529053 162.75581787 91.30151367 161.69970703 C90.01196289 159.79101562 90.01196289 159.79101562 90.42602539 157.53710938 C92.68233995 153.63023959 95.4842831 150.2964519 98.38696289 146.85351562 C102.19504271 142.30167021 105.82670673 137.80426362 109.01196289 132.79101562 C109.58946289 133.14164062 110.16696289 133.49226563 110.76196289 133.85351562 C113.51624227 135.00113203 114.27188062 134.90417405 117.01196289 133.79101562 C119.23847306 131.60531829 119.23847306 131.60531829 121.26196289 128.91601562 C121.96836914 128.03171875 122.67477539 127.14742188 123.40258789 126.23632812 C125.28684466 123.86125462 125.28684466 123.86125462 125.01196289 120.79101562 C124.02196289 120.13101563 123.03196289 119.47101563 122.01196289 118.79101562 C123.54346242 114.01634062 126.25026103 110.72133025 129.38696289 106.91601562 C136.23268393 98.98199827 136.23268393 98.98199827 139.26196289 89.29101562 C137.12366826 83.30379066 132.16173781 80.22419891 127.01196289 76.79101562 C123.63593832 76.09252778 122.20320894 75.81467287 119.01196289 76.79101562 C115.4724202 79.68758384 112.79898647 83.18293764 110.01196289 86.79101562 C109.08120364 87.97739428 108.15020637 89.16358624 107.21899414 90.34960938 C104.78393047 93.47269539 102.38965195 96.62407279 100.01196289 99.79101562 C97.62632212 99.2151713 95.34513505 98.56873968 93.01196289 97.79101562 C90.04196289 101.75101562 87.07196289 105.71101563 84.01196289 109.79101562 C84.67196289 111.11101562 85.33196289 112.43101562 86.01196289 113.79101562 C86.67196289 113.79101562 87.33196289 113.79101562 88.01196289 113.79101562 C85.67550186 118.13015753 83.61173797 121.37274181 80.01196289 124.79101562 C79.9977832 124.11039062 79.98360352 123.42976563 79.96899414 122.72851562 C78.44496753 91.75370455 58.18508739 62.99785349 38.01196289 40.79101562 C36.96638835 39.62304833 35.92081545 38.45507956 34.87524414 37.28710938 C29.55953599 31.3954291 24.11875288 25.86774465 18.01196289 20.79101562 C16.8681889 19.79965288 15.72645427 18.80593491 14.58618164 17.81054688 C13.33236234 16.7206031 12.07845542 15.6307601 10.82446289 14.54101562 C10.22972168 14.02079834 9.63498047 13.50058105 9.0222168 12.96459961 C5.8355202 10.21545925 2.71972998 7.82993839 -0.98803711 5.79101562 Z " fill="#FAF3F0" transform="translate(147.988037109375,28.208984375)"/>
<path d="M0 0 C1.9434004 2.9151006 3.09231048 5.56492622 4.375 8.8125 C10.17505748 22.69597093 20.92413879 28.66818641 33.625 36 C34.66317871 36.60231445 35.70135742 37.20462891 36.77099609 37.82519531 C55.80068154 49.84031949 55.80068154 49.84031949 77 53 C81.42510861 51.0344441 85.53423023 48.60579585 89.6875 46.125 C91.89833708 44.83353358 94.11052713 43.54437983 96.32421875 42.2578125 C97.7796106 41.39373779 97.7796106 41.39373779 99.2644043 40.51220703 C101.79633055 39.11258622 104.29112284 38.00561708 107 37 C99.54385737 51.84356505 87.68139706 62.22264319 72 68 C67.56063685 69.28527607 63.27795013 69.18398241 58.6875 69.1875 C57.85798828 69.19974609 57.02847656 69.21199219 56.17382812 69.22460938 C51.05320079 69.23673399 46.84992526 68.6559124 42 67 C47.75736964 74.61014019 53.38657056 81.25922144 61.6171875 86.21875 C62.25575684 86.60732178 62.89432617 86.99589355 63.55224609 87.39624023 C64.83150403 88.16222358 66.12349534 88.90740392 67.42822266 89.62915039 C69.21875 90.69140625 69.21875 90.69140625 72 93 C72.46875 96.21484375 72.46875 96.21484375 72 99 C71.67 99.33 71.34 99.66 71 100 C65.28054427 99.54647488 60.16661633 98.34587918 54.75 96.5 C53.98059082 96.23864258 53.21118164 95.97728516 52.41845703 95.70800781 C30.93960321 88.19537993 9.86191935 77.67535111 -6 61 C-6.66515625 60.39027344 -7.3303125 59.78054687 -8.015625 59.15234375 C-15.85141329 51.80962377 -22.86165067 42.74235849 -25 32 C-23.125 28.5625 -23.125 28.5625 -21 26 C-17.25061108 27.24979631 -16.36385656 28.81703026 -14 31.9375 C-11.72566111 34.93118472 -10.14818138 36.90121241 -7 39 C-7 39.66 -7 40.32 -7 41 C-5.95585938 41.38091797 -5.95585938 41.38091797 -4.890625 41.76953125 C-1.64420131 43.15145485 1.22856219 44.86532956 4.25 46.6875 C12.14175334 51.34210731 20.47320065 54.69663948 29 58 C29.33 57.67 29.66 57.34 30 57 C28.49373047 55.80117187 28.49373047 55.80117187 26.95703125 54.578125 C-4.37903558 29.48385767 -4.37903558 29.48385767 -7 19 C-7.37643305 13.25939597 -6.9351531 8.43685872 -5 3 C-2.375 1 -2.375 1 0 0 Z " fill="#FC3148" transform="translate(73,178)"/>
<path d="M0 0 C2.875 0.1875 2.875 0.1875 6 1 C9.03278953 6.58033273 8.61063365 12.84153624 8 19 C6.46030074 23.97624451 3.55263063 28.21052733 0 32 C-0.66 32 -1.32 32 -2 32 C-2.26167969 32.59683594 -2.52335937 33.19367188 -2.79296875 33.80859375 C-4.07867148 36.14283074 -5.27897096 37.3599093 -7.3125 39.0625 C-8.01890625 39.65804687 -8.7253125 40.25359375 -9.453125 40.8671875 C-10.29359375 41.57101563 -11.1340625 42.27484375 -12 43 C-13.05864247 43.91771491 -14.11584614 44.83709127 -15.171875 45.7578125 C-16.30181582 46.73468452 -17.43202449 47.7112468 -18.5625 48.6875 C-19.09206299 49.15099854 -19.62162598 49.61449707 -20.16723633 50.09204102 C-23.88634881 53.27322986 -27.68924482 55.67882413 -32 58 C-11.22591544 51.44315082 7.09101115 42.20322305 21 25 C25.875 29.625 25.875 29.625 27 33 C24.05334862 40.91318475 19.40308765 47.59865135 14 54 C13.57589844 54.56847656 13.15179688 55.13695312 12.71484375 55.72265625 C-2.75212255 75.7303833 -37.13102398 94.05072679 -61.97265625 97.6484375 C-62.97167969 97.76445312 -63.97070312 97.88046875 -65 98 C-63.32407306 93.25154033 -61.51180588 88.49217411 -57.00927734 85.81738281 C-54.55241012 84.69841358 -52.07259542 83.68120549 -49.5625 82.6875 C-37.73684306 77.68343386 -28.17766715 72.104774 -20 62 C-20.69561035 62.29769287 -21.3912207 62.59538574 -22.10791016 62.90209961 C-25.27742949 64.25401603 -28.45112859 65.59583463 -31.625 66.9375 C-32.71941406 67.40607422 -33.81382812 67.87464844 -34.94140625 68.35742188 C-36.53662109 69.0293457 -36.53662109 69.0293457 -38.1640625 69.71484375 C-39.62513428 70.33540649 -39.62513428 70.33540649 -41.11572266 70.96850586 C-44.07918468 72.02831854 -46.88681408 72.57804419 -50 73 C-44.36839821 61.52931636 -36.10758002 51.98855468 -27.40991211 42.75292969 C-22.67033524 37.70863832 -18.3076539 32.41930652 -14 27 C-13.35417969 26.28199219 -12.70835937 25.56398437 -12.04296875 24.82421875 C-9.11815599 20.78093075 -7.29034187 16.3775024 -5.3125 11.8125 C-4.51703006 10.00646506 -3.721462 8.20047333 -2.92578125 6.39453125 C-2.57942627 5.59893799 -2.23307129 4.80334473 -1.8762207 3.98364258 C-1.28314822 2.64100845 -0.65641471 1.31282942 0 0 Z " fill="#EC0616" transform="translate(214,179)"/>
<path d="M0 0 C0.495 1.98 0.495 1.98 1 4 C0.25234375 4.45890625 -0.4953125 4.9178125 -1.265625 5.390625 C-2.25046875 6.00421875 -3.2353125 6.6178125 -4.25 7.25 C-5.22453125 7.85328125 -6.1990625 8.4565625 -7.203125 9.078125 C-9.79705245 10.86054442 -11.86377619 12.70101628 -14 15 C-13.44828125 14.67257813 -12.8965625 14.34515625 -12.328125 14.0078125 C-9.61219077 12.83212285 -7.69448241 12.79751362 -4.75 12.875 C-3.85796875 12.89304687 -2.9659375 12.91109375 -2.046875 12.9296875 C-1.03367188 12.96449219 -1.03367188 12.96449219 0 13 C-2.99485947 16.09146784 -6.08264649 18.91291833 -9.375 21.6875 C-14.16305222 25.88205831 -17.59321872 30.65431105 -21 36 C-20.08476563 35.43410156 -19.16953125 34.86820313 -18.2265625 34.28515625 C-17.02606894 33.54422663 -15.82554661 32.80334364 -14.625 32.0625 C-14.02171875 31.68931641 -13.4184375 31.31613281 -12.796875 30.93164062 C-8.0125526 27.98130848 -5.64380724 26.87730854 0 27 C0 29.64 0 32.28 0 35 C-0.52207031 35.25652344 -1.04414063 35.51304688 -1.58203125 35.77734375 C-17.11473579 43.85652632 -29.4176204 57.2978569 -40 71 C-40.45971191 71.58861816 -40.91942383 72.17723633 -41.39306641 72.78369141 C-50.99944754 85.14660302 -56.35380611 94.19346718 -54.44921875 110.19140625 C-54.2019188 111.9826953 -53.94794493 113.77307491 -53.6875 115.5625 C-53.56955078 116.45646484 -53.45160156 117.35042969 -53.33007812 118.27148438 C-51.92889734 128.09412099 -49.97421541 134.06732973 -42.125 140.375 C-41.46459717 140.92663818 -40.80419434 141.47827637 -40.1237793 142.04663086 C-34.77345126 146.47954046 -29.2758709 150.72504221 -23.70703125 154.87890625 C-21.27326311 156.78588475 -19.12686846 158.76145826 -17 161 C-21.2140066 159.71992321 -24.80387718 158.12544885 -28.58984375 155.8828125 C-29.62173828 155.27566406 -30.65363281 154.66851562 -31.71679688 154.04296875 C-33.31104492 153.09357422 -33.31104492 153.09357422 -34.9375 152.125 C-37.05067162 150.87741846 -39.16395014 149.63001796 -41.27734375 148.3828125 C-42.76633179 147.49722656 -42.76633179 147.49722656 -44.28540039 146.59375 C-46.50172342 145.29253976 -48.73441195 144.046833 -50.9921875 142.8203125 C-60.15199762 137.276843 -64.93138848 128.23853576 -67.75 118.25 C-70.48331773 106.16903766 -68.50498581 95.64041158 -65 84 C-64.66097656 82.83726562 -64.32195312 81.67453125 -63.97265625 80.4765625 C-61.50198359 73.07333695 -58.02843333 68.20880385 -52.58203125 62.65625 C-48.7312847 58.69481634 -45.3851685 54.35911363 -42 50 C-45.96 51.98 -45.96 51.98 -50 54 C-48.50793873 49.70029657 -46.263732 46.16853121 -43.625 42.5 C-43.18873291 41.89196533 -42.75246582 41.28393066 -42.30297852 40.6574707 C-37.3836493 33.95181712 -31.78361952 27.95924776 -26 22 C-25.20464844 21.1646875 -24.40929687 20.329375 -23.58984375 19.46875 C-16.42128796 12.08526397 -8.43434354 5.86736942 0 0 Z " fill="#FB2E46" transform="translate(147,49)"/>
<path d="M0 0 C2.90154954 1.33359681 4.25193346 3.24189565 6.21875 5.74609375 C6.99476562 6.72835937 7.77078125 7.710625 8.5703125 8.72265625 C12.4437379 13.75344249 16.26035138 18.82549704 20.03125 23.93359375 C17.06125 28.88359375 17.06125 28.88359375 14.03125 33.93359375 C17.99125 30.63359375 21.95125 27.33359375 26.03125 23.93359375 C27.35125 24.59359375 28.67125 25.25359375 30.03125 25.93359375 C27.89851928 31.23026565 23.50356691 33.61130119 19.03125 36.93359375 C22.66125 40.89359375 26.29125 44.85359375 30.03125 48.93359375 C29.061875 47.51046875 28.0925 46.08734375 27.09375 44.62109375 C25.3039418 41.99350299 24.04152905 39.96443091 23.03125 36.93359375 C25.34125 36.60359375 27.65125 36.27359375 30.03125 35.93359375 C31.8861265 38.27326751 33.71402511 40.62745049 35.53125 42.99609375 C36.05589844 43.65287109 36.58054688 44.30964844 37.12109375 44.98632812 C40.56871351 49.53091781 41.68453086 52.22480988 41.03125 57.93359375 C39.05125 58.59359375 37.07125 59.25359375 35.03125 59.93359375 C34.70125 61.58359375 34.37125 63.23359375 34.03125 64.93359375 C29.73559963 60.82365759 26.00780519 56.37288418 22.28125 51.74609375 C21.69214844 51.02228516 21.10304688 50.29847656 20.49609375 49.55273438 C16.16500235 44.20109845 16.16500235 44.20109845 15.03125 41.93359375 C14.165 42.18109375 14.165 42.18109375 13.28125 42.43359375 C11.03125 42.93359375 11.03125 42.93359375 7.03125 42.93359375 C7.03125 41.61359375 7.03125 40.29359375 7.03125 38.93359375 C8.51625 38.43859375 8.51625 38.43859375 10.03125 37.93359375 C7.53483255 32.22487443 3.89618845 27.66352668 0.03125 22.80859375 C-1.21893681 21.22280351 -2.46894311 19.63687093 -3.71875 18.05078125 C-4.54632813 17.00833252 -4.54632813 17.00833252 -5.390625 15.94482422 C-6.17179687 14.94926514 -6.17179687 14.94926514 -6.96875 13.93359375 C-7.52820313 13.2389502 -8.08765625 12.54430664 -8.6640625 11.82861328 C-9.96875 9.93359375 -9.96875 9.93359375 -10.09375 7.49609375 C-8.35730672 3.54086183 -4.56850834 -0.15409651 0 0 Z " fill="#D92438" transform="translate(23.96875,111.06640625)"/>
<path d="M0 0 C1.9434004 2.9151006 3.09231048 5.56492622 4.375 8.8125 C10.17505748 22.69597093 20.92413879 28.66818641 33.625 36 C34.66317871 36.60231445 35.70135742 37.20462891 36.77099609 37.82519531 C55.8050102 49.85279434 55.8050102 49.85279434 77 53 C81.48528794 50.96683785 85.65974536 48.47590103 89.875 45.9375 C92.1165712 44.60285537 94.36522037 43.2820573 96.6171875 41.96484375 C97.60315918 41.3730835 98.58913086 40.78132324 99.60498047 40.17163086 C100.39533691 39.78499268 101.18569336 39.39835449 102 39 C102.66 39.33 103.32 39.66 104 40 C96.68415238 46.34550832 89.34704923 52.02869264 81 57 C79.69869141 57.82371094 79.69869141 57.82371094 78.37109375 58.6640625 C74.10147018 61.06968237 70.6448363 60.40955763 66.08203125 59.2734375 C41.66583665 52.09735163 15.82238179 39.65080816 0 19 C2.82644841 30.02314881 11.39653703 38.00418752 19 46 C16 46 16 46 14.203125 44.4609375 C13.55859375 43.77257812 12.9140625 43.08421875 12.25 42.375 C9.72581419 39.73986097 7.21766664 37.28676739 4.375 35 C-0.53662861 30.87513112 -5.41722468 25.33110127 -7 19 C-7.37643305 13.25939597 -6.9351531 8.43685872 -5 3 C-2.375 1 -2.375 1 0 0 Z " fill="#FBD9D6" transform="translate(73,178)"/>
<path d="M0 0 C0.33 0 0.66 0 1 0 C0.89558594 0.86882812 0.79117188 1.73765625 0.68359375 2.6328125 C0.00866283 9.30434176 0.00866283 9.30434176 2.72265625 15.09375 C5.08432925 16.68170166 7.38691615 17.87604934 10 19 C10.72703125 19.34675781 11.4540625 19.69351563 12.203125 20.05078125 C16.16617693 21.76759955 18.92098958 22.46426015 23 21 C24.794375 20.195625 24.794375 20.195625 26.625 19.375 C30 18 30 18 33 19 C27.64993984 22.28767869 23.31631828 24.59683075 17 25 C20.92448893 33.35914847 20.92448893 33.35914847 25.875 41.125 C28 44 28 44 28 46 C33.28 46.66 38.56 47.32 44 48 C44 48.66 44 49.32 44 50 C39.71 50.99 35.42 51.98 31 53 C33.9463019 58.95641102 33.9463019 58.95641102 39 63 C39 63.66 39 64.32 39 65 C27.72345483 63.84343126 17.74676885 56.95998267 10 49 C8.5 46.0625 8.5 46.0625 8 44 C10.31 44 12.62 44 15 44 C14.46632813 43.54753906 13.93265625 43.09507812 13.3828125 42.62890625 C5.69034635 35.58856958 -2.73324971 25.52314296 -4.51171875 14.9609375 C-4.311382 12.42333861 -3.85650832 10.39216718 -3 8 C-2.61714844 6.82244141 -2.61714844 6.82244141 -2.2265625 5.62109375 C-1.55858582 3.71967498 -0.78973441 1.85415904 0 0 Z " fill="#E90412" transform="translate(108,136)"/>
<path d="M0 0 C17.05537853 6.64975048 30.70381435 29.04347639 40.1640625 43.84375 C39.6690625 44.83375 39.6690625 44.83375 39.1640625 45.84375 C38.37644531 45.286875 37.58882812 44.73 36.77734375 44.15625 C29.07464521 38.74573702 21.24707157 33.67461089 13.1640625 28.84375 C12.3390625 28.32425781 11.5140625 27.80476563 10.6640625 27.26953125 C5.7385055 24.28512258 1.02627232 21.76271281 -4.8359375 22.84375 C-8.66302024 24.66318278 -12.21919193 26.70042632 -15.796875 28.9609375 C-18.8359375 30.84375 -18.8359375 30.84375 -21.8359375 31.84375 C-18.58037678 22.26456086 -9.82634216 15.54848335 -1.8359375 9.84375 C-7.4847809 9.51146509 -11.04368987 9.50369862 -15.8359375 12.84375 C-16.4959375 12.51375 -17.1559375 12.18375 -17.8359375 11.84375 C-2.97863434 -0.25350079 -2.97863434 -0.25350079 0 0 Z " fill="#080001" transform="translate(147.8359375,53.15625)"/>
<path d="M0 0 C0.66 0.33 1.32 0.66 2 1 C1.38948105 4.39827023 0.157783 6.39742357 -1.984375 9.08203125 C-2.59023438 9.84966797 -3.19609375 10.61730469 -3.8203125 11.40820312 C-4.45710938 12.20162109 -5.09390625 12.99503906 -5.75 13.8125 C-6.99610266 15.38046943 -8.24091452 16.94946564 -9.484375 18.51953125 C-10.08056641 19.27186035 -10.67675781 20.02418945 -11.29101562 20.79931641 C-13.62344519 23.80281928 -15.82026062 26.88430383 -18 30 C-17.49855469 30.43957031 -16.99710937 30.87914062 -16.48046875 31.33203125 C-15.74763672 32.15767578 -15.74763672 32.15767578 -15 33 C-15.3125 35.6875 -15.3125 35.6875 -16 38 C-17.32 37.67 -18.64 37.34 -20 37 C-20 36.34 -20 35.68 -20 35 C-24.09227211 36.52292318 -26.13248692 39.40679456 -28.625 42.8125 C-29.49976168 43.97934537 -30.37476944 45.14600629 -31.25 46.3125 C-31.69859375 46.91578125 -32.1471875 47.5190625 -32.609375 48.140625 C-34.91490576 51.22330097 -37.27209101 54.26593681 -39.625 57.3125 C-40.47159508 58.41257506 -41.31797184 59.51281819 -42.1640625 60.61328125 C-42.76992187 61.40089844 -43.37578125 62.18851563 -44 63 C-47.33330029 60.85258539 -48.80527404 59.70762023 -49.875 55.8203125 C-50.23247668 45.25240801 -47.3087432 40.23563846 -40.40625 32.53515625 C-39.6121875 31.69855469 -38.818125 30.86195313 -38 30 C-36.02 30.33 -34.04 30.66 -32 31 C-32.93017291 36.13361251 -36.07817023 39.77267182 -39 44 C-35.04 39.71 -31.08 35.42 -27 31 C-28.629375 29.7625 -30.25875 28.525 -31.9375 27.25 C-36.79903846 23.55769231 -36.79903846 23.55769231 -37.81640625 20.734375 C-37.87699219 20.16203125 -37.93757812 19.5896875 -38 19 C-37.01 18.67 -36.02 18.34 -35 18 C-32.63902369 19.57300414 -30.50097539 21.15210242 -28.3125 22.9375 C-27.70599609 23.41896484 -27.09949219 23.90042969 -26.47460938 24.39648438 C-24.97574254 25.58849658 -23.48689675 26.79308951 -22 28 C-14.22850204 18.99377806 -6.6092538 9.91388069 0 0 Z " fill="#FADFDB" transform="translate(279,117)"/>
<path d="M0 0 C0 3.24552926 -0.57553665 4.50793332 -2.01171875 7.359375 C-2.43783447 8.22103271 -2.8639502 9.08269043 -3.30297852 9.97045898 C-3.75987061 10.88770752 -4.2167627 11.80495605 -4.6875 12.75 C-13.42826266 30.67941437 -20.10297188 50.01151721 -14.375 70 C-12.31835643 75.80267294 -9.43801634 80.91173581 -6 86 C-5.34 86.99 -4.68 87.98 -4 89 C-11.09474496 86.65564949 -15.80004917 80.63149632 -19.3125 74.1875 C-26.00652689 59.16312853 -24.60072376 45.27946789 -20 30 C-19.66097656 28.83726562 -19.32195312 27.67453125 -18.97265625 26.4765625 C-16.08840339 17.83406817 -11.36317488 12.38403775 -5 6 C-3.28500862 4.03347655 -1.6434165 2.02688035 0 0 Z " fill="#FBDAD6" transform="translate(102,103)"/>
<path d="M0 0 C4.875 4.625 4.875 4.625 6 8 C3.05334862 15.91318475 -1.59691235 22.59865135 -7 29 C-7.63615234 29.85271484 -7.63615234 29.85271484 -8.28515625 30.72265625 C-22.05542043 48.5355668 -48.95408554 62.34285725 -70 69 C-70.99 68.67 -71.98 68.34 -73 68 C-72.46858398 67.73485596 -71.93716797 67.46971191 -71.38964844 67.1965332 C-61.04566748 61.99907039 -50.95348189 56.57614448 -41.25 50.25 C-40.45432617 49.73219971 -39.65865234 49.21439941 -38.83886719 48.6809082 C-18.52094668 35.80212218 -18.52094668 35.80212218 -6.6875 16.0625 C-6.44161651 14.7112687 -6.20629306 13.35783942 -6 12 C-7.98 12.66 -9.96 13.32 -12 14 C-6 7 -6 7 0 0 Z " fill="#FAE7E7" transform="translate(235,204)"/>
<path d="M0 0 C13.66502788 12.83324357 19.66376049 35.10731881 23 53 C23.22042969 53.969375 23.44085938 54.93875 23.66796875 55.9375 C25.48586731 66.3787635 20.19649823 77.16818344 14.5 85.6875 C11.69709197 89.38933622 8.74154654 92.26228302 5 95 C4.34 94.67 3.68 94.34 3 94 C3.45890625 93.46632813 3.9178125 92.93265625 4.390625 92.3828125 C10.18144393 85.3511038 14.03326857 78.18394855 15 69 C14.01 69.99 13.02 70.98 12 72 C12.144375 70.91203125 12.28875 69.8240625 12.4375 68.703125 C15.35337424 46.01373558 13.2527931 23.4439537 0.8828125 3.56640625 C0 2 0 2 0 0 Z " fill="#FCE9E9" transform="translate(194,97)"/>
<path d="M0 0 C3.74938892 1.24979631 4.63614344 2.81703026 7 5.9375 C9.27433889 8.93118472 10.85181862 10.90121241 14 13 C13.67 13.66 13.34 14.32 13 15 C11.02 14.01 9.04 13.02 7 12 C8.22461885 22.3036896 12.07841283 27.71648041 19.9375 34.3125 C21.9478824 35.88842392 23.96950288 37.45007902 26 39 C26.53737793 39.42152344 27.07475586 39.84304687 27.62841797 40.27734375 C38.40888976 48.72376977 50.02331552 55.40311527 62 62 C63.71129654 62.94987427 65.4222535 63.90036068 67.1328125 64.8515625 C67.8767627 65.26486816 68.62071289 65.67817383 69.38720703 66.10400391 C69.91942871 66.39968262 70.45165039 66.69536133 71 67 C70.01 67.495 70.01 67.495 69 68 C66.47654848 67.05746978 64.07116487 66.05310669 61.625 64.9375 C60.90546143 64.61458984 60.18592285 64.29167969 59.44458008 63.95898438 C43.05546881 56.54793928 27.53417831 48.17695669 15 35 C14.33484375 34.39027344 13.6696875 33.78054687 12.984375 33.15234375 C5.14858671 25.80962377 -1.86165067 16.74235849 -4 6 C-2.125 2.5625 -2.125 2.5625 0 0 Z " fill="#FAD6D3" transform="translate(52,204)"/>
<path d="M0 0 C3.85098598 0.26558524 6.16695501 2.56043348 9 5 C8.12152871 9.39413833 5.71305685 12.21936913 2.9375 15.625 C2.44596436 16.23875488 1.95442871 16.85250977 1.44799805 17.48486328 C0.44895335 18.7311127 -0.55290803 19.97510954 -1.55761719 21.21679688 C-2.88100723 22.85289045 -4.19649881 24.49484669 -5.5078125 26.140625 C-7.3336354 28.43108384 -9.16442055 30.71735965 -11 33 C-15.69576619 31.0467191 -16.71858386 28.39987399 -19 24 C-4.6 4.6 -4.6 4.6 0 0 Z " fill="#AF040F" transform="translate(270,111)"/>
<path d="M0 0 C9.01720132 0.85878108 18.00653358 1.92537466 27 3 C26.34 3.66 25.68 4.32 25 5 C31.04050927 5.32784311 36.14108486 4.13093049 41.9375 2.5 C42.81212891 2.26152344 43.68675781 2.02304688 44.58789062 1.77734375 C46.72755439 1.19273616 48.86465572 0.60015656 51 0 C55 4.75 55 4.75 55 7 C36.83099696 13.17893221 15.67468985 10.51995815 -3 8 C-2.45276317 4.62537285 -1.9451 2.91765 0 0 Z " fill="#E4283D" transform="translate(122,112)"/>
<path d="M0 0 C2.31815506 2.00460874 3.96698176 4.579846 5.75 7.0625 C6.25660156 7.71927734 6.76320313 8.37605469 7.28515625 9.05273438 C10.59902674 13.5858591 11.61243688 16.39328619 11 22 C9.02 22.66 7.04 23.32 5 24 C4.67 25.65 4.34 27.3 4 29 C-0.25689176 24.91881485 -3.97974876 20.5186513 -7.6875 15.9375 C-8.55858398 14.87692383 -8.55858398 14.87692383 -9.44726562 13.79492188 C-10.00478516 13.10849609 -10.56230469 12.42207031 -11.13671875 11.71484375 C-11.63905029 11.09730225 -12.14138184 10.47976074 -12.65893555 9.84350586 C-14.02064034 7.97162658 -15.02647871 6.09612479 -16 4 C-11.86010363 2.41450777 -11.86010363 2.41450777 -9 3 C-5.57439951 5.99740043 -2.78360475 9.40845555 0 13 C-0.63228516 12.07767578 -0.63228516 12.07767578 -1.27734375 11.13671875 C-1.82519531 10.32847656 -2.37304688 9.52023438 -2.9375 8.6875 C-3.48277344 7.88699219 -4.02804688 7.08648437 -4.58984375 6.26171875 C-6 4 -6 4 -7 1 C-4 0 -4 0 0 0 Z " fill="#FDE4E0" transform="translate(54,147)"/>
<path d="M0 0 C3.13191693 1.48603242 4.69888441 3.8337864 6.81640625 6.54296875 C7.615625 7.55488281 8.41484375 8.56679687 9.23828125 9.609375 C9.8415625 10.39183594 10.44484375 11.17429687 11.06640625 11.98046875 C10.40640625 13.30046875 9.74640625 14.62046875 9.06640625 15.98046875 C6.59140625 15.48546875 6.59140625 15.48546875 4.06640625 14.98046875 C3.16189301 17.70705641 3.16189301 17.70705641 3.06640625 20.98046875 C4.89692832 23.94136062 4.89692832 23.94136062 7.50390625 26.60546875 C12.06640625 31.57894203 12.06640625 31.57894203 12.06640625 35.98046875 C8.19509204 34.69003068 7.37806774 33.02240955 5.00390625 29.73046875 C4.21505506 28.63952907 3.42462983 27.54972622 2.6328125 26.4609375 C2.21918457 25.89165527 1.80555664 25.32237305 1.37939453 24.73583984 C0.03640428 22.94035827 -1.35959858 21.20245946 -2.78125 19.46875 C-3.2445874 18.89608398 -3.7079248 18.32341797 -4.18530273 17.73339844 C-5.08620165 16.62445193 -5.99820125 15.52441294 -6.92211914 14.43457031 C-8.90917959 11.9565245 -9.93741719 10.50886857 -9.9140625 7.28125 C-8.81342557 4.69848048 -7.91601788 3.68783614 -5.62109375 2.10546875 C-5.02683594 1.67492187 -4.43257812 1.244375 -3.8203125 0.80078125 C-1.93359375 -0.01953125 -1.93359375 -0.01953125 0 0 Z " fill="#F22A40" transform="translate(23.93359375,111.01953125)"/>
<path d="M0 0 C0.33 0 0.66 0 1 0 C0.89558594 0.86882812 0.79117188 1.73765625 0.68359375 2.6328125 C0.00866283 9.30434176 0.00866283 9.30434176 2.72265625 15.09375 C5.08432925 16.68170166 7.38691615 17.87604934 10 19 C10.72703125 19.34675781 11.4540625 19.69351563 12.203125 20.05078125 C16.16617693 21.76759955 18.92098958 22.46426015 23 21 C24.794375 20.195625 24.794375 20.195625 26.625 19.375 C30 18 30 18 33 19 C26.8772499 23.00788714 21.43117192 25.45142633 14 25 C10.87242263 24.26218872 7.95266422 23.26237094 5 22 C6.6361085 27.74633229 8.66450595 32.4710645 12.109375 37.37109375 C12.40328125 37.90863281 12.6971875 38.44617188 13 39 C12.67 39.66 12.34 40.32 12 41 C5.27010898 34.23431169 -3.05439562 25.01484064 -4.3828125 15.16015625 C-3.97023196 9.80486088 -2.09172209 4.91099968 0 0 Z " fill="#F3223C" transform="translate(108,136)"/>
<path d="M0 0 C3.75906101 3.75906101 4.31032744 7.82619484 4.375 13 C4.19380594 23.67836987 0.65214236 33.03533158 -5 42 C-5.33 41.34 -5.66 40.68 -6 40 C-5.06421005 37.64018187 -4.06652192 35.30368736 -3 33 C-5.475 33.495 -5.475 33.495 -8 34 C-7.36771484 33.36384766 -7.36771484 33.36384766 -6.72265625 32.71484375 C-2.76753928 28.48054205 -1.2371383 25.80988828 -1 20 C-1.61746094 20.28875 -2.23492187 20.5775 -2.87109375 20.875 C-8.61995848 23.39505029 -13.7192716 25.38236128 -20 24 C-24.1564223 22.26103734 -28.08515105 20.22570093 -32 18 C-29 17 -29 17 -26.9140625 17.8125 C-25.39212323 18.60203846 -23.87128092 19.39369519 -22.3515625 20.1875 C-18.13863378 21.64312986 -15.43957177 20.19927253 -11.484375 18.40625 C-10.23644491 17.77701943 -8.99169108 17.14145452 -7.75 16.5 C-6.79480469 16.01853516 -6.79480469 16.01853516 -5.8203125 15.52734375 C-2.70580681 14.06460516 -2.70580681 14.06460516 0 12 C0.07244053 9.98035801 0.08377188 7.95832876 0.0625 5.9375 C0.05347656 4.83277344 0.04445312 3.72804687 0.03515625 2.58984375 C0.02355469 1.73519531 0.01195312 0.88054687 0 0 Z " fill="#EADBD7" transform="translate(185,137)"/>
<path d="M0 0 C0.66 0.33 1.32 0.66 2 1 C1.38948105 4.39827023 0.157783 6.39742357 -1.984375 9.08203125 C-2.59023438 9.84966797 -3.19609375 10.61730469 -3.8203125 11.40820312 C-4.45710938 12.20162109 -5.09390625 12.99503906 -5.75 13.8125 C-6.99610266 15.38046943 -8.24091452 16.94946564 -9.484375 18.51953125 C-10.08056641 19.27186035 -10.67675781 20.02418945 -11.29101562 20.79931641 C-13.62344519 23.80281928 -15.82026062 26.88430383 -18 30 C-17.49855469 30.43957031 -16.99710937 30.87914062 -16.48046875 31.33203125 C-15.99191406 31.88246094 -15.50335938 32.43289062 -15 33 C-15.3125 35.6875 -15.3125 35.6875 -16 38 C-17.32 37.67 -18.64 37.34 -20 37 C-20 36.34 -20 35.68 -20 35 C-21.1446875 34.814375 -21.1446875 34.814375 -22.3125 34.625 C-25 34 -25 34 -28 32 C-28 31.34 -28 30.68 -28 30 C-30.2348276 28.16698989 -32.57773872 26.52536247 -34.93359375 24.8515625 C-37.14545952 22.86966387 -37.64927875 21.89504453 -38 19 C-37.01 18.67 -36.02 18.34 -35 18 C-32.63902369 19.57300414 -30.50097539 21.15210242 -28.3125 22.9375 C-27.70599609 23.41896484 -27.09949219 23.90042969 -26.47460938 24.39648438 C-24.97574254 25.58849658 -23.48689675 26.79308951 -22 28 C-14.22850204 18.99377806 -6.6092538 9.91388069 0 0 Z " fill="#DF1F2B" transform="translate(279,117)"/>
<path d="M0 0 C0.495 1.98 0.495 1.98 1 4 C0.25234375 4.45890625 -0.4953125 4.9178125 -1.265625 5.390625 C-2.25046875 6.00421875 -3.2353125 6.6178125 -4.25 7.25 C-5.22453125 7.85328125 -6.1990625 8.4565625 -7.203125 9.078125 C-9.79705245 10.86054442 -11.86377619 12.70101628 -14 15 C-13.44828125 14.67257813 -12.8965625 14.34515625 -12.328125 14.0078125 C-9.61219077 12.83212285 -7.69448241 12.79751362 -4.75 12.875 C-3.85796875 12.89304687 -2.9659375 12.91109375 -2.046875 12.9296875 C-1.03367187 12.96449219 -1.03367187 12.96449219 0 13 C-0.33 13.66 -0.66 14.32 -1 15 C-2.11375 15.2475 -3.2275 15.495 -4.375 15.75 C-19.4020615 19.23842499 -30.65762654 31.30370502 -41 42 C-41 37.89890741 -38.88261922 36.07406665 -36.3125 33.125 C-35.82209229 32.55563721 -35.33168457 31.98627441 -34.82641602 31.3996582 C-24.38422081 19.44062785 -13.04521435 9.07493172 0 0 Z " fill="#8D69CB" transform="translate(147,49)"/>
<path d="M0 0 C3.85098598 0.26558524 6.16695501 2.56043348 9 5 C8.41827275 8.9520518 6.44842259 11.22095053 3.9375 14.25 C3.20402344 15.14203125 2.47054688 16.0340625 1.71484375 16.953125 C1.14894531 17.62859375 0.58304687 18.3040625 0 19 C-0.99 18.34 -1.98 17.68 -3 17 C-3 16.34 -3 15.68 -3 15 C-3.78375 14.87625 -4.5675 14.7525 -5.375 14.625 C-8 14 -8 14 -10 12 C-8.70984254 10.37380152 -7.41782303 8.74908017 -6.125 7.125 C-5.04605469 5.76761719 -5.04605469 5.76761719 -3.9453125 4.3828125 C-2 2 -2 2 0 0 Z " fill="#BB030E" transform="translate(270,111)"/>
<path d="M0 0 C2.4375 0.75 2.4375 0.75 5 2 C7.16894467 7.71331766 7.01718505 15.6901958 5.24609375 21.453125 C3.35708796 25.3348467 0.95628226 28.84663225 -2 32 C-2.66 32 -3.32 32 -4 32 C-4.37511719 32.87785156 -4.37511719 32.87785156 -4.7578125 33.7734375 C-6.16476141 36.29532706 -7.68712804 37.75086062 -9.875 39.625 C-10.55304688 40.21539062 -11.23109375 40.80578125 -11.9296875 41.4140625 C-13.88666469 42.91318087 -15.76048537 43.98569068 -18 45 C-16.7934375 43.63875 -16.7934375 43.63875 -15.5625 42.25 C-2.34762176 26.70638829 -2.34762176 26.70638829 1.20703125 7.171875 C0.97423972 4.72976009 0.63266507 2.37249403 0 0 Z " fill="#F9DDDF" transform="translate(216,179)"/>
<path d="M0 0 C1.98 1.65 3.96 3.3 6 5 C5.67 6.65 5.34 8.3 5 10 C4.01 10.33 3.02 10.66 2 11 C0.78130071 13.50447516 0.78130071 13.50447516 0 16 C-2.375 16.125 -2.375 16.125 -5 16 C-5.66 15.34 -6.32 14.68 -7 14 C-7 13.01 -7 12.02 -7 11 C-8.32 10.67 -9.64 10.34 -11 10 C-11.33 8.68 -11.66 7.36 -12 6 C-11.01 5.34 -10.02 4.68 -9 4 C-6 5 -6 5 -5 7 C-4.34 6.67 -3.68 6.34 -3 6 C-3.33 4.35 -3.66 2.7 -4 1 C-2.68 1.33 -1.36 1.66 0 2 C0 1.34 0 0.68 0 0 Z " fill="#1F1928" transform="translate(171,134)"/>
<path d="M0 0 C2.97 0.495 2.97 0.495 6 1 C6 1.99 6 2.98 6 4 C7.32 4.33 8.64 4.66 10 5 C10 6.65 10 8.3 10 10 C9.071875 10.12375 9.071875 10.12375 8.125 10.25 C5.81562433 10.81258459 5.81562433 10.81258459 4.75 13.0625 C4.5025 13.701875 4.255 14.34125 4 15 C2.35 14.67 0.7 14.34 -1 14 C-1.33 13.01 -1.66 12.02 -2 11 C-4.00016466 9.79117904 -4.00016466 9.79117904 -6 9 C-5.6875 7.0625 -5.6875 7.0625 -5 5 C-4.01 4.67 -3.02 4.34 -2 4 C-0.79117904 1.99983534 -0.79117904 1.99983534 0 0 Z " fill="#27202F" transform="translate(126,133)"/>
<path d="M0 0 C1.70884005 1.62339805 3.37446717 3.29319053 5 5 C5 5.66 5 6.32 5 7 C-0.99290494 8.74339053 -6.54845152 9.19281011 -12.75 9.1875 C-13.48275146 9.18814453 -14.21550293 9.18878906 -14.97045898 9.18945312 C-18.76360306 9.15135283 -22.3124478 8.90737013 -26 8 C-26 7.34 -26 6.68 -26 6 C-24.96101562 5.81824219 -23.92203125 5.63648437 -22.8515625 5.44921875 C-15.0759445 4.05845022 -7.49989375 2.5420313 0 0 Z " fill="#F4E3E0" transform="translate(172,112)"/>
<path d="M0 0 C1.32 0.66 2.64 1.32 4 2 C2.52202738 5.67056937 0.52384523 7.41085783 -2.625 9.75 C-3.44226563 10.36359375 -4.25953125 10.9771875 -5.1015625 11.609375 C-5.72804688 12.06828125 -6.35453125 12.5271875 -7 13 C-6.67 13.66 -6.34 14.32 -6 15 C-7.41225926 15.67595315 -8.83002905 16.34040059 -10.25 17 C-11.43335938 17.556875 -11.43335938 17.556875 -12.640625 18.125 C-15 19 -15 19 -19 19 C-19 17.68 -19 16.36 -19 15 C-18.01 14.67 -17.02 14.34 -16 14 C-16 13.34 -16 12.68 -16 12 C-14.68024732 11.09701132 -13.35310623 10.20375921 -12 9.3515625 C-7.79783276 6.51181667 -3.93035961 3.20021375 0 0 Z " fill="#DE0917" transform="translate(50,135)"/>
<path d="M0 0 C2.31815506 2.00460874 3.96698176 4.579846 5.75 7.0625 C6.25660156 7.71927734 6.76320313 8.37605469 7.28515625 9.05273438 C10.59902674 13.5858591 11.61243688 16.39328619 11 22 C6.40206652 17.61981929 2.6527173 12.79846616 -1.15820312 7.73242188 C-2.3949734 6.12035579 -3.69284296 4.55553793 -5 3 C-5.66 3 -6.32 3 -7 3 C-7 2.34 -7 1.68 -7 1 C-4 0 -4 0 0 0 Z " fill="#FB4254" transform="translate(54,147)"/>
<path d="M0 0 C2.97 0.495 2.97 0.495 6 1 C4.74830568 4.75508295 2.80906191 6.2187113 0 9 C-1.82136015 11.21786036 -3.53607976 13.51102326 -5.25 15.8125 C-6.80781346 17.89933971 -8.38441177 19.95658008 -10 22 C-10.33 22 -10.66 22 -11 22 C-11.5904017 15.9349644 -10.95067325 13.03353292 -7.08984375 8.3203125 C-6.56519531 7.71960938 -6.04054687 7.11890625 -5.5 6.5 C-4.97535156 5.86835938 -4.45070312 5.23671875 -3.91015625 4.5859375 C-2.62410695 3.04267834 -1.31437221 1.51920944 0 0 Z " fill="#FB4052" transform="translate(241,147)"/>
<path d="M0 0 C0.66 0.33 1.32 0.66 2 1 C1.38948105 4.39827023 0.157783 6.39742357 -1.984375 9.08203125 C-2.59023438 9.84966797 -3.19609375 10.61730469 -3.8203125 11.40820312 C-4.45710938 12.20162109 -5.09390625 12.99503906 -5.75 13.8125 C-6.99610266 15.38046943 -8.24091452 16.94946564 -9.484375 18.51953125 C-10.08056641 19.27186035 -10.67675781 20.02418945 -11.29101562 20.79931641 C-13.62344519 23.80281928 -15.82026062 26.88430383 -18 30 C-18.99 29.67 -19.98 29.34 -21 29 C-19.65328663 26.11966286 -18.11733548 23.68365535 -16.171875 21.171875 C-15.61886719 20.45386719 -15.06585938 19.73585937 -14.49609375 18.99609375 C-13.91988281 18.25488281 -13.34367187 17.51367188 -12.75 16.75 C-11.61942089 15.28674474 -10.48921102 13.82320411 -9.359375 12.359375 C-8.80572266 11.64330078 -8.25207031 10.92722656 -7.68164062 10.18945312 C-5.09050293 6.81585806 -2.54228381 3.41049336 0 0 Z " fill="#F8D7DA" transform="translate(279,117)"/>
<path d="M0 0 C4.16368765 1.52795877 6.22618362 4.54321118 8.75 8 C9.62640465 9.17667562 10.50402504 10.35244664 11.3828125 11.52734375 C11.81883789 12.11241699 12.25486328 12.69749023 12.70410156 13.30029297 C15.21364327 16.59182074 17.91545575 19.73095901 20.6015625 22.87890625 C22 25 22 25 22 29 C18.12868579 27.70956193 17.31166149 26.0419408 14.9375 22.75 C14.14703538 21.66188617 13.35532043 20.57467979 12.5625 19.48828125 C12.14871094 18.91932129 11.73492187 18.35036133 11.30859375 17.76416016 C9.96667207 15.95506948 8.58585755 14.18373223 7.1875 12.41796875 C6.49926147 11.54543457 6.49926147 11.54543457 5.79711914 10.65527344 C4.90296028 9.52557299 4.00383127 8.39978559 3.09936523 7.27832031 C0 3.3331136 0 3.3331136 0 0 Z " fill="#FAD0CC" transform="translate(14,118)"/>
<path d="M0 0 C0.66 0.33 1.32 0.66 2 1 C-0.38565595 7.09546039 -5.78417763 8.69051785 -11.375 11.1875 C-12.32117188 11.62513672 -13.26734375 12.06277344 -14.2421875 12.51367188 C-16.8190346 13.69894916 -19.3994138 14.86778788 -22 16 C-23.2986499 16.59421753 -23.2986499 16.59421753 -24.62353516 17.20043945 C-27 18 -27 18 -30 17 C-29.410979 16.69819824 -28.82195801 16.39639648 -28.21508789 16.08544922 C-25.49465942 14.68752898 -22.77859449 13.28132122 -20.0625 11.875 C-19.13630859 11.400625 -18.21011719 10.92625 -17.25585938 10.4375 C-11.23241607 7.30953646 -5.56043589 3.89256291 0 0 Z " fill="#FEDADE" transform="translate(192,255)"/>
<path d="M0 0 C5.48924571 1.55954493 10.13579074 4.13667185 15.0625 6.9375 C15.85205078 7.38029297 16.64160156 7.82308594 17.45507812 8.27929688 C21.3383192 10.46341654 25.19547893 12.68054349 29 15 C28.01 15.495 28.01 15.495 27 16 C24.43614769 15.03556023 21.98699924 14.01086862 19.5 12.875 C18.78255615 12.55168701 18.0651123 12.22837402 17.32592773 11.89526367 C15.88442767 11.24194987 14.44485932 10.58435588 13.00732422 9.92236328 C11.26247503 9.12060699 9.50890258 8.33788815 7.75390625 7.55859375 C6.86574219 7.14738281 5.97757812 6.73617188 5.0625 6.3125 C4.29035156 5.95800781 3.51820312 5.60351562 2.72265625 5.23828125 C1 4 1 4 0.24609375 1.85546875 C0.16488281 1.24316406 0.08367187 0.63085938 0 0 Z " fill="#F9D2CE" transform="translate(94,256)"/>
<path d="M0 0 C1.625 2.5 1.625 2.5 3 5 C1.75 6.5625 1.75 6.5625 0 8 C-2.1875 7.6875 -2.1875 7.6875 -4 7 C-4.66 8.65 -5.32 10.3 -6 12 C-7.37562854 10.71034824 -8.70766393 9.37310707 -10 8 C-10 7.34 -10 6.68 -10 6 C-8.35 6 -6.7 6 -5 6 C-4.67 4.68 -4.34 3.36 -4 2 C-4.66 1.67 -5.32 1.34 -6 1 C-3.92446352 0.4465236 -2.15634036 0 0 0 Z " fill="#F22B41" transform="translate(32,119)"/>
<path d="M0 0 C1.32 0 2.64 0 4 0 C4 1.65 4 3.3 4 5 C5.32 5.33 6.64 5.66 8 6 C7.67 7.32 7.34 8.64 7 10 C4.1875 10.25 4.1875 10.25 1 10 C-0.9375 8.25 -0.9375 8.25 -2 6 C-1.72330471 3.64809002 -1.05656463 2.11312926 0 0 Z " fill="#74141D" transform="translate(28,126)"/>
<path d="M0 0 C0.33 1.32 0.66 2.64 1 4 C0.26394531 4.45890625 -0.47210938 4.9178125 -1.23046875 5.390625 C-2.69419922 6.31101562 -2.69419922 6.31101562 -4.1875 7.25 C-5.15042969 7.85328125 -6.11335937 8.4565625 -7.10546875 9.078125 C-10.0502349 10.94792395 -10.0502349 10.94792395 -12.67578125 13.296875 C-13.44277344 13.85890625 -14.20976562 14.4209375 -15 15 C-15.99 14.67 -16.98 14.34 -18 14 C-12.13142165 9.12897384 -6.28303486 4.32831291 0 0 Z " fill="#8563C3" transform="translate(147,49)"/>
<path d="M0 0 C1.8125 2.0625 1.8125 2.0625 3 4 C2.67 4.66 2.34 5.32 2 6 C0.35 4.68 -1.3 3.36 -3 2 C-1.35 4.97 0.3 7.94 2 11 C-2.0906298 8.9546851 -2.92891126 8.06764117 -5.25 4.375 C-6.03117187 3.14910156 -6.03117187 3.14910156 -6.828125 1.8984375 C-7.21484375 1.27195313 -7.6015625 0.64546875 -8 0 C-4.64106891 -1.1196437 -3.32285646 -1.07992835 0 0 Z " fill="#F9EFED" transform="translate(46,151)"/>
<path d="M0 0 C0.66 0 1.32 0 2 0 C2 1.32 2 2.64 2 4 C3.32 4 4.64 4 6 4 C6 4.99 6 5.98 6 7 C4.68 7 3.36 7 2 7 C2 8.32 2 9.64 2 11 C1.34 11 0.68 11 0 11 C0 9.68 0 8.36 0 7 C-1.32 7 -2.64 7 -4 7 C-4 6.01 -4 5.02 -4 4 C-2.68 4 -1.36 4 0 4 C0 2.68 0 1.36 0 0 Z " fill="#E5D3D3" transform="translate(127,135)"/>
<path d="M0 0 C0.66 0.33 1.32 0.66 2 1 C1.01 1.99 0.02 2.98 -1 4 C-0.67 4.66 -0.34 5.32 0 6 C-2.2863012 7.36402043 -4.57821749 8.71634274 -6.875 10.0625 C-7.52597656 10.45244141 -8.17695313 10.84238281 -8.84765625 11.24414062 C-10.53065725 12.22444533 -12.26296199 13.11898432 -14 14 C-14.66 13.67 -15.32 13.34 -16 13 C-15.01257813 12.22914063 -14.02515625 11.45828125 -13.0078125 10.6640625 C-11.71348671 9.65111188 -10.41921889 8.63808719 -9.125 7.625 C-8.47402344 7.11710938 -7.82304687 6.60921875 -7.15234375 6.0859375 C-6.52714844 5.59609375 -5.90195313 5.10625 -5.2578125 4.6015625 C-4.6817627 4.15119629 -4.10571289 3.70083008 -3.51220703 3.23681641 C-1.86533246 1.93178492 -1.86533246 1.93178492 0 0 Z " fill="#C6030B" transform="translate(181,196)"/>
<path d="M0 0 C1.50559539 1.96382007 2.89131683 3.78263366 4 6 C4.99 6.33 5.98 6.66 7 7 C6.34 8.32 5.68 9.64 5 11 C4.01 10.34 3.02 9.68 2 9 C2 8.34 2 7.68 2 7 C1.21625 6.87625 0.4325 6.7525 -0.375 6.625 C-3 6 -3 6 -5 4 C-3.35 2.68 -1.7 1.36 0 0 Z " fill="#EC0515" transform="translate(265,119)"/>
<path d="M0 0 C-3.00993864 2.27495363 -6.05139529 4.49927694 -9.125 6.6875 C-9.99382812 7.31011719 -10.86265625 7.93273437 -11.7578125 8.57421875 C-14 10 -14 10 -16 10 C-12.95541326 2.08407448 -8.191488 -0.84739531 0 0 Z " fill="#9976D7" transform="translate(136,66)"/>
<path d="M0 0 C3.32859708 3.04875927 5.50435293 6.21910958 7.75 10.125 C8.67039063 11.70667969 8.67039063 11.70667969 9.609375 13.3203125 C11 16 11 16 11 18 C10.01 18.33 9.02 18.66 8 19 C7.67386719 18.19175781 7.34773437 17.38351563 7.01171875 16.55078125 C6.57472656 15.48214844 6.13773438 14.41351563 5.6875 13.3125 C5.25824219 12.25675781 4.82898438 11.20101562 4.38671875 10.11328125 C3.07381037 6.99437593 3.07381037 6.99437593 1.33203125 4.23046875 C0 2 0 2 0 0 Z " fill="#F6CBCF" transform="translate(194,97)"/>
<path d="M0 0 C0.66 0 1.32 0 2 0 C4.12079476 2.25058029 5.86572377 4.81701029 7.6875 7.3125 C8.21150391 8.00279297 8.73550781 8.69308594 9.27539062 9.40429688 C9.76587891 10.07138672 10.25636719 10.73847656 10.76171875 11.42578125 C11.21506592 12.03848877 11.66841309 12.65119629 12.13549805 13.2824707 C12.42078369 13.84925537 12.70606934 14.41604004 13 15 C12.67 15.99 12.34 16.98 12 18 C10.36763346 15.94297722 8.74412995 13.87990147 7.125 11.8125 C6.43470703 10.9452832 6.43470703 10.9452832 5.73046875 10.06054688 C3.21199731 6.83033351 1.29255389 3.9445179 0 0 Z " fill="#F8BAB7" transform="translate(52,147)"/>
<path d="M0 0 C0 0.99 0 1.98 0 3 C-1.32 2.67 -2.64 2.34 -4 2 C-4 3.32 -4 4.64 -4 6 C-3.34 6.33 -2.68 6.66 -2 7 C-3.98 7.99 -3.98 7.99 -6 9 C-6 8.01 -6 7.02 -6 6 C-7.32 5.67 -8.64 5.34 -10 5 C-9.01 4.67 -8.02 4.34 -7 4 C-7 3.01 -7 2.02 -7 1 C-4.53721199 -0.231394 -2.7204945 -0.07159196 0 0 Z " fill="#221B2B" transform="translate(171,133)"/>
<path d="M0 0 C3.87132028 0.57352893 6.08172796 2.48704352 9 5 C8.67 6.32 8.34 7.64 8 9 C6.68 9.33 5.36 9.66 4 10 C4.66 9.67 5.32 9.34 6 9 C5.67 7.68 5.34 6.36 5 5 C3.35 4.67 1.7 4.34 0 4 C0 2.68 0 1.36 0 0 Z " fill="#DC0614" transform="translate(270,111)"/>
<path d="M0 0 C0.66 0 1.32 0 2 0 C0.53416665 4.54071365 -2.04531733 7.76266969 -5.125 11.3125 C-5.82689453 12.13717773 -5.82689453 12.13717773 -6.54296875 12.97851562 C-7.68952483 14.32396409 -8.84397451 15.662679 -10 17 C-10.33 16.01 -10.66 15.02 -11 14 C-10.13549805 12.37426758 -10.13549805 12.37426758 -8.76171875 10.64453125 C-8.02598633 9.71157227 -8.02598633 9.71157227 -7.27539062 8.75976562 C-6.75138672 8.11716797 -6.22738281 7.47457031 -5.6875 6.8125 C-4.91889648 5.83120117 -4.91889648 5.83120117 -4.13476562 4.83007812 C-2.81100997 3.17495208 -1.41050201 1.58185188 0 0 Z " fill="#F5B7B5" transform="translate(241,147)"/>
<path d="M0 0 C0.33 0.66 0.66 1.32 1 2 C3.02463255 2.65213292 3.02463255 2.65213292 5 3 C5 4.65 5 6.3 5 8 C4.360625 8.12375 3.72125 8.2475 3.0625 8.375 C2.381875 8.58125 1.70125 8.7875 1 9 C0.67 9.66 0.34 10.32 0 11 C-0.66 10.67 -1.32 10.34 -2 10 C-2 9.01 -2 8.02 -2 7 C-0.68 7 0.64 7 2 7 C2 6.01 2 5.02 2 4 C0.68 4 -0.64 4 -2 4 C-1 1 -1 1 0 0 Z " fill="#2A2131" transform="translate(131,135)"/>
<path d="M0 0 C4.21814817 3.9700218 7.61227103 8.30840284 11 13 C10.01 14.485 10.01 14.485 9 16 C7 14 7 14 6.1875 11.8125 C4.85495316 8.65646802 3.09847861 6.25553137 1.0234375 3.55078125 C0 2 0 2 0 0 Z " fill="#F5BEBB" transform="translate(48,149)"/>
<path d="M0 0 C-0.33 2.31 -0.66 4.62 -1 7 C-2.98 7.33 -4.96 7.66 -7 8 C-7 4 -7 4 -5.1875 1.75 C-3 0 -3 0 0 0 Z " fill="#82727B" transform="translate(174,140)"/>
<path d="M0 0 C0.66 0.33 1.32 0.66 2 1 C1.52797514 5.24822374 -0.96655518 7.19989709 -4 10 C-4.99 9.67 -5.98 9.34 -7 9 C-4.69 6.03 -2.38 3.06 0 0 Z " fill="#FAD2D6" transform="translate(279,117)"/>
<path d="M0 0 C4.33333333 4.33333333 8.66666667 8.66666667 13 13 C10 13 10 13 8.0625 11.35546875 C7.381875 10.64003906 6.70125 9.92460937 6 9.1875 C5.319375 8.47980469 4.63875 7.77210938 3.9375 7.04296875 C3.298125 6.36878906 2.65875 5.69460937 2 5 C1.00334259 3.99666855 0.00469843 2.99527939 -1 2 C-0.67 1.34 -0.34 0.68 0 0 Z " fill="#EEADAB" transform="translate(79,211)"/>
<path d="M0 0 C2.0625 0.4375 2.0625 0.4375 4 1 C4 2.65 4 4.3 4 6 C2.125 6.625 2.125 6.625 0 7 C-0.66 6.34 -1.32 5.68 -2 5 C-1.46428571 1.46428571 -1.46428571 1.46428571 0 0 Z " fill="#645762" transform="translate(161,138)"/>
<path d="M0 0 C0 3.19610552 -0.54671542 4.41717626 -2 7.1875 C-2.37125 7.90292969 -2.7425 8.61835937 -3.125 9.35546875 C-3.41375 9.89816406 -3.7025 10.44085938 -4 11 C-6 11 -8 11 -10 11 C-6.7 7.37 -3.4 3.74 0 0 Z " fill="#F6C4C0" transform="translate(102,103)"/>
<path d="M0 0 C3.43950364 0.61198376 5.51564485 1.92058847 8.25 4.0625 C8.95640625 4.61035156 9.6628125 5.15820312 10.390625 5.72265625 C11.18726563 6.35494141 11.18726563 6.35494141 12 7 C11.01 7.495 11.01 7.495 10 8 C7.3984375 6.78515625 7.3984375 6.78515625 4.375 5.0625 C3.37210937 4.49660156 2.36921875 3.93070313 1.3359375 3.34765625 C0.56507812 2.90292969 -0.20578125 2.45820313 -1 2 C-0.67 1.34 -0.34 0.68 0 0 Z " fill="#D91B30" transform="translate(118,202)"/>
<path d="M0 0 C3.41742782 1.13914261 4.12880598 2.06390308 6.25 4.875 C6.79140625 5.57367188 7.3328125 6.27234375 7.890625 6.9921875 C8.25671875 7.65476563 8.6228125 8.31734375 9 9 C8.67 9.99 8.34 10.98 8 12 C6.66081194 10.37982158 5.3288031 8.75370657 4 7.125 C3.2575 6.22007812 2.515 5.31515625 1.75 4.3828125 C0 2 0 2 0 0 Z " fill="#FBF2EF" transform="translate(48,163)"/>
<path d="M0 0 C0.6875 1.6875 0.6875 1.6875 1 4 C-0.3125 6.75 -0.3125 6.75 -2 9 C-2.66 9 -3.32 9 -4 9 C-4 6.33333333 -4 3.66666667 -4 1 C-2.68 1.33 -1.36 1.66 0 2 C0 1.34 0 0.68 0 0 Z " fill="#71626E" transform="translate(171,134)"/>
<path d="M0 0 C2.97903734 2.97903734 4 5.80285329 4 10 C3.34 10 2.68 10 2 10 C1.67 10.66 1.34 11.32 1 12 C0.01751476 7.9472484 -0.08159574 4.16138263 0 0 Z " fill="#E2D0CC" transform="translate(185,137)"/>
<path d="M0 0 C0.66 0 1.32 0 2 0 C4.74375671 2.95481492 5 3.77471908 5 8 C1.59575156 6.86525052 0.78346291 6.03188696 -1 3 C-0.67 2.01 -0.34 1.02 0 0 Z " fill="#F7C7C4" transform="translate(31,139)"/>
<path d="M0 0 C1.36531986 0.42395575 2.72452185 0.87136197 4.0625 1.375 C4.0625 1.705 4.0625 2.035 4.0625 2.375 C3.47082031 2.41238281 2.87914062 2.44976562 2.26953125 2.48828125 C-2.63942606 2.89669369 -5.76474937 3.59316624 -9.9375 6.375 C-10.5975 6.045 -11.2575 5.715 -11.9375 5.375 C-8.24902724 1.17654547 -5.76360508 -1.34970499 0 0 Z " fill="#3E214C" transform="translate(141.9375,59.625)"/>
<path d="M0 0 C0.33 1.32 0.66 2.64 1 4 C-1.31 5.32 -3.62 6.64 -6 8 C-6.66 7.34 -7.32 6.68 -8 6 C-5.36 4.02 -2.72 2.04 0 0 Z " fill="#8756B1" transform="translate(147,49)"/>
<path d="M0 0 C0.66 0.33 1.32 0.66 2 1 C-0.64 2.98 -3.28 4.96 -6 7 C-6.99 6.34 -7.98 5.68 -9 5 C-7.54735962 4.1361871 -6.0876837 3.28419546 -4.625 2.4375 C-3.40683594 1.72400391 -3.40683594 1.72400391 -2.1640625 0.99609375 C-1.44992188 0.66738281 -0.73578125 0.33867187 0 0 Z " fill="#F5B6B4" transform="translate(175,217)"/>
<path d="M0 0 C0.33 0.99 0.66 1.98 1 3 C-1.31 4.98 -3.62 6.96 -6 9 C-6.66 8.67 -7.32 8.34 -8 8 C-7.04578192 6.85073734 -6.08647955 5.70569459 -5.125 4.5625 C-4.59132812 3.92441406 -4.05765625 3.28632813 -3.5078125 2.62890625 C-2 1 -2 1 0 0 Z " fill="#F2BDC5" transform="translate(205,183)"/>
<path d="M0 0 C2.53910197 0.38520564 3.72751123 0.70097943 5.484375 2.62890625 C5.90203125 3.26699219 6.3196875 3.90507812 6.75 4.5625 C7.17796875 5.20316406 7.6059375 5.84382812 8.046875 6.50390625 C8.36140625 6.99761719 8.6759375 7.49132812 9 8 C8.67 8.66 8.34 9.32 8 10 C6.84806377 8.90220176 5.70365063 7.79650554 4.5625 6.6875 C3.92441406 6.07261719 3.28632812 5.45773438 2.62890625 4.82421875 C1 3 1 3 0 0 Z " fill="#3F2526" transform="translate(46,151)"/>
<path d="M0 0 C4.75481646 0.57634139 7.97048212 2.55068521 12 5 C10 6 10 6 7.6171875 5.22265625 C6.71226563 4.83980469 5.80734375 4.45695312 4.875 4.0625 C3.50988281 3.49208984 3.50988281 3.49208984 2.1171875 2.91015625 C1.41851562 2.60980469 0.71984375 2.30945313 0 2 C0 1.34 0 0.68 0 0 Z " fill="#E39A99" transform="translate(111,266)"/>
<path d="M0 0 C0.99 0.66 1.98 1.32 3 2 C1.40084119 2.69906942 -0.20455045 3.38389468 -1.8125 4.0625 C-2.70582031 4.44535156 -3.59914062 4.82820313 -4.51953125 5.22265625 C-7 6 -7 6 -10 5 C-6.7 3.35 -3.4 1.7 0 0 Z " fill="#F0A6B2" transform="translate(172,267)"/>
<path d="M0 0 C0.99 0.33 1.98 0.66 3 1 C2.625 3.4375 2.625 3.4375 2 6 C1.01 6.495 1.01 6.495 0 7 C-0.66 6.34 -1.32 5.68 -2 5 C-1.34 5 -0.68 5 0 5 C0 4.01 0 3.02 0 2 C-0.66 1.67 -1.32 1.34 -2 1 C-1.34 0.67 -0.68 0.34 0 0 Z " fill="#2F2637" transform="translate(174,138)"/>
<path d="M0 0 C3.125 0.375 3.125 0.375 6 1 C5.34 2.32 4.68 3.64 4 5 C3.01 4.01 2.02 3.02 1 2 C0.67 2.99 0.34 3.98 0 5 C-0.66 4.01 -1.32 3.02 -2 2 C-1.34 1.34 -0.68 0.68 0 0 Z " fill="#1E1827" transform="translate(126,133)"/>
<path d="M0 0 C0 0.99 0 1.98 0 3 C-2.35438733 4.42944945 -3.48032433 5.08661261 -6.25 4.625 C-6.8275 4.41875 -7.405 4.2125 -8 4 C-2.25 0 -2.25 0 0 0 Z " fill="#FCD0D5" transform="translate(181,263)"/>
<path d="M0 0 C2.91517292 1.07401108 4.77810176 1.77810176 7 4 C4 5 4 5 0.8125 3.5625 C-0.115625 3.046875 -1.04375 2.53125 -2 2 C-1.34 1.34 -0.68 0.68 0 0 Z " fill="#F8C6C2" transform="translate(105,262)"/>
<path d="M0 0 C1.32 0.66 2.64 1.32 4 2 C-2.625 5.125 -2.625 5.125 -6 4 C-4.02 2.68 -2.04 1.36 0 0 Z " fill="#320407" transform="translate(187,233)"/>
<path d="M0 0 C0.33 0.66 0.66 1.32 1 2 C-0.65 3.65 -2.3 5.3 -4 7 C-4 5.68 -4 4.36 -4 3 C-2 1.25 -2 1.25 0 0 Z " fill="#FDE6E5" transform="translate(274,126)"/>
<path d="M0 0 C2.475 0.495 2.475 0.495 5 1 C5.33 2.32 5.66 3.64 6 5 C4.68 5 3.36 5 2 5 C1.34 3.35 0.68 1.7 0 0 Z " fill="#2D0102" transform="translate(270,115)"/>
<path d="M0 0 C0.33 0 0.66 0 1 0 C1.3125 2.3125 1.3125 2.3125 1 5 C-1.5 6.8125 -1.5 6.8125 -4 8 C-2.87548273 5.0280615 -1.77706209 2.66559313 0 0 Z " fill="#C4396D" transform="translate(101,95)"/>
<path d="M0 0 C2.64 0 5.28 0 8 0 C8 0.66 8 1.32 8 2 C5.69 2.33 3.38 2.66 1 3 C0.67 2.01 0.34 1.02 0 0 Z " fill="#BE030B" transform="translate(144,184)"/>
<path d="M0 0 C1.98 0.99 1.98 0.99 4 2 C4.66 1.34 5.32 0.68 6 0 C5.67 1.65 5.34 3.3 5 5 C3.35 4.67 1.7 4.34 0 4 C0 2.68 0 1.36 0 0 Z " fill="#1F1829" transform="translate(125,143)"/>
<path d="M0 0 C1.32 0 2.64 0 4 0 C3.67 1.32 3.34 2.64 3 4 C1.35 4 -0.3 4 -2 4 C-1.34 2.68 -0.68 1.36 0 0 Z " fill="#230306" transform="translate(24,121)"/>
<path d="M0 0 C3.465 1.98 3.465 1.98 7 4 C6.01 4.66 5.02 5.32 4 6 C2 4.6875 2 4.6875 0 3 C0 2.01 0 1.02 0 0 Z " fill="#D9040E" transform="translate(148,50)"/>
<path d="M0 0 C0.66 0.33 1.32 0.66 2 1 C0.515 2.485 0.515 2.485 -1 4 C-0.67 4.66 -0.34 5.32 0 6 C-1.65 6.33 -3.3 6.66 -5 7 C-3.47793991 4.37098712 -2.15634036 2.15634036 0 0 Z " fill="#D9040E" transform="translate(181,196)"/>
<path d="M0 0 C2.72426311 2.35277269 3.8141763 4.62496331 5 8 C3.02 6.35 1.04 4.7 -1 3 C-0.67 2.01 -0.34 1.02 0 0 Z " fill="#FC1C3E" transform="translate(116,169)"/>
<path d="M0 0 C0.93065133 2.60582371 1.14917407 3.64198224 0.0625 6.25 C-0.4634375 7.11625 -0.4634375 7.11625 -1 8 C-1.99 7.67 -2.98 7.34 -4 7 C-4 6.34 -4 5.68 -4 5 C-3.34 5 -2.68 5 -2 5 C-1.34 3.35 -0.68 1.7 0 0 Z " fill="#F61B42" transform="translate(209,164)"/>
<path d="M0 0 C1.32 0.66 2.64 1.32 4 2 C3.67 2.99 3.34 3.98 3 5 C1.68 4.34 0.36 3.68 -1 3 C-0.67 2.01 -0.34 1.02 0 0 Z " fill="#E892A5" transform="translate(31,150)"/>
<path d="M0 0 C1.32 0 2.64 0 4 0 C3.34 1.32 2.68 2.64 2 4 C0.68 3.67 -0.64 3.34 -2 3 C-1.34 2.01 -0.68 1.02 0 0 Z " fill="#240306" transform="translate(20,116)"/>
</svg>
